<svg width="24" height="24" viewBox="0 0 24 24" fill="none" xmlns="http://www.w3.org/2000/svg">
<path d="M8.65732 22.2356V18.6682C8.65732 17.7576 9.40095 17.0194 10.3183 17.0194H13.6715C14.112 17.0194 14.5344 17.1931 14.8459 17.5023C15.1574 17.8115 15.3324 18.2309 15.3324 18.6682V22.2356C15.3296 22.6142 15.4792 22.9782 15.7478 23.2469C16.0165 23.5156 16.3821 23.6667 16.7635 23.6667H19.0512C20.1197 23.6694 21.1453 23.25 21.9018 22.501C22.6583 21.7519 23.0834 20.7348 23.0834 19.6741V9.51135C23.0834 8.65455 22.7008 7.84183 22.0388 7.29212L14.2564 1.12186C12.9027 0.0399988 10.963 0.0749293 9.6497 1.20482L2.04493 7.29212C1.35161 7.82562 0.937226 8.64075 0.916748 9.51135V19.6638C0.916748 21.8745 2.72203 23.6667 4.94895 23.6667H7.18442C7.97651 23.6667 8.62025 23.0323 8.62598 22.2459L8.65732 22.2356Z" fill="white"/>
</svg>
